<svg width="350" height="350" viewBox="0 0 350 350" fill="none" xmlns="http://www.w3.org/2000/svg">
<rect x="255" y="5" width="90" height="90" stroke="white" stroke-width="10"/>
<rect x="5" y="5" width="90" height="90" stroke="white" stroke-width="10"/>
<rect x="5" y="255" width="90" height="90" stroke="white" stroke-width="10"/>
<mask id="path-4-inside-1_60_13" fill="white">
<path d="M100 50H250V0H350V100H300V250H350V350H250V300H100V350H0V250H50V100H0V0H100V50Z"/>
</mask>
<path d="M100 50H90V60H100V50ZM250 50V60H260V50H250ZM250 0V-10H240V0H250ZM350 0H360V-10H350V0ZM350 100V110H360V100H350ZM300 100V90H290V100H300ZM300 250H290V260H300V250ZM350 250H360V240H350V250ZM350 350V360H360V350H350ZM250 350H240V360H250V350ZM250 300H260V290H250V300ZM100 300V290H90V300H100ZM100 350V360H110V350H100ZM0 350H-10V360H0V350ZM0 250V240H-10V250H0ZM50 250V260H60V250H50ZM50 100H60V90H50V100ZM0 100H-10V110H0V100ZM0 0V-10H-10V0H0ZM100 0H110V-10H100V0ZM100 50V60H250V50V40H100V50ZM250 50H260V0H250H240V50H250ZM250 0V10H350V0V-10H250V0ZM350 0H340V100H350H360V0H350ZM350 100V90H300V100V110H350V100ZM300 100H290V250H300H310V100H300ZM300 250V260H350V250V240H300V250ZM350 250H340V350H350H360V250H350ZM350 350V340H250V350V360H350V350ZM250 350H260V300H250H240V350H250ZM250 300V290H100V300V310H250V300ZM100 300H90V350H100H110V300H100ZM100 350V340H0V350V360H100V350ZM0 350H10V250H0H-10V350H0ZM0 250V260H50V250V240H0V250ZM50 250H60V100H50H40V250H50ZM50 100V90H0V100V110H50V100ZM0 100H10V0H0H-10V100H0ZM0 0V10H100V0V-10H0V0ZM100 0H90V50H100H110V0H100Z" fill="white" mask="url(#path-4-inside-1_60_13)"/>
<rect x="255" y="255" width="90" height="90" stroke="white" stroke-width="10"/>
</svg>
